<?xml version="1.0" encoding="utf-8"?>
<!-- Generator: Adobe Illustrator 17.0.0, SVG Export Plug-In . SVG Version: 6.00 Build 0)  -->
<!DOCTYPE svg PUBLIC "-//W3C//DTD SVG 1.1//EN" "http://www.w3.org/Graphics/SVG/1.1/DTD/svg11.dtd">
<svg version="1.1" xmlns="http://www.w3.org/2000/svg" xmlns:xlink="http://www.w3.org/1999/xlink" x="0px" y="0px" width="2000px"
	 height="2000px" viewBox="0 0 2000 2000" enable-background="new 0 0 2000 2000" xml:space="preserve">
<g id="Layer_1">
</g>
<g id="Layer_2">
	<g>
		<path d="M119.357,1182.755l-48.748,0.006l-31.272-31.254l-0.031-298.862l31.261-31.254l48.748-0.006L119.357,1182.755z
			 M327.025,821.37l48.76,0l30.738,31.24l0.019,298.856l-30.727,31.268l-48.76,0.001l-0.005-140.942l-95.915-0.001l-58.272,58.815
			l-34.442-34.428l-0.011-43.98l59.876-59.882l128.745-0.004L327.025,821.37z"/>
		<polygon points="714.912,901.331 639.144,901.334 639.139,852.586 670.394,821.343 763.66,821.329 794.92,852.578 
			794.923,977.105 589.883,1182.718 458.479,1182.732 427.739,1151.462 427.739,1102.702 556.5,1102.69 591.994,1067.209 
			427.723,902.432 427.715,852.618 458.454,821.355 507.184,821.357 507.191,869.565 648.696,1010.496 714.907,944.269 		"/>
		<path d="M847.412,1182.693l-31.268-31.266l-0.005-48.748c95.908-0.017,191.822-0.016,287.73-0.034l-0.022-104.912
			c-32.329-32.312-64.109-64.108-96.425-96.415c-37.097-0.014-74.192,0.003-111.276-0.006l0.015,155.8l-48.748,0.005l-31.28-31.271
			c-0.01-57.752-0.004-115.511-0.026-173.268l31.285-31.244c64.642-0.016,128.75-0.017,193.391-0.034l143.084,143.034
			c0.008,62.551,0.009,124.545,0.016,187.065l-31.255,31.273C1050.892,1182.675,949.149,1182.69,847.412,1182.693"/>
		<polygon points="1492.787,901.261 1395.292,901.272 1330.132,966.456 1465.787,1102.623 1572.287,1102.607 1572.288,1151.367 
			1541.573,1182.641 1432.946,1182.65 1285.096,1034.812 1285.115,1182.661 1236.355,1182.662 1205.088,1151.395 1205.051,852.546 
			1236.342,821.29 1285.072,821.291 1285.087,898.639 1362.432,821.282 1541.536,821.258 1572.269,852.511 1572.286,1010.952 
			1541.561,1041.681 1444.053,1041.687 1412.797,1010.965 1412.791,962.217 1492.793,962.206 		"/>
		<path d="M1854.182,901.238l-181.22,181.23l0.008,100.15l-48.735,0.011l-30.746-31.258l-0.019-102.27l227.313-227.853
			l108.627-0.009l31.265,31.237l0.018,298.855l-31.254,31.272l-182.279,0.013l-30.733-31.252l-0.001-48.76
			c54.571-0.01,109.693-0.012,164.259-0.009l-0.02-201.365L1854.182,901.238z"/>
	</g>
</g>
</svg>
