<?xml version="1.0" encoding="utf-8"?>
<!-- Generator: Adobe Illustrator 17.0.0, SVG Export Plug-In . SVG Version: 6.00 Build 0)  -->
<!DOCTYPE svg PUBLIC "-//W3C//DTD SVG 1.1//EN" "http://www.w3.org/Graphics/SVG/1.1/DTD/svg11.dtd">
<svg version="1.1" xmlns="http://www.w3.org/2000/svg" xmlns:xlink="http://www.w3.org/1999/xlink" x="0px" y="0px" width="2000px"
	 height="2000px" viewBox="0 0 2000 2000" enable-background="new 0 0 2000 2000" xml:space="preserve">
<g id="Layer_1">
</g>
<g id="Layer_2">
	<g>
		<polygon points="1529.156,208.757 1235.524,346.272 1203.092,488.686 1235.524,515.986 1203.608,651.86 1488.976,518.474 
			1574.542,399.133 1604.071,273.028 		"/>
		<polygon points="1827.329,624.596 1604.073,429.994 1509.718,552.427 1811.025,673.108 		"/>
		<polygon points="1389.967,1030.745 1068.855,1178.851 1018.58,1364.581 979.535,1403.465 837.155,2001.609 1166.458,1857.792 
			1214.312,1624.237 1294.667,1543.883 1382.161,1179.552 1361.27,1146.926 		"/>
		<polygon points="1558.9,529.709 996.329,789.589 1147.518,162.983 1124.763,138.128 1151.156,-0.536 1033.5,-0.536 
			872.328,92.538 806.168,329.287 742.434,393.022 605.693,967.834 172.671,1167.257 172.671,1308.357 415.517,1432.86 
			507.915,1385.609 533.636,1369.914 499.008,1498.605 475.862,1513.448 427.448,1706.541 823.232,1526.66 843.061,1440.71 
			817.977,1413.814 843.329,1260.317 897.314,1215.273 1765.472,808.63 1815.23,660.596 		"/>
	</g>
</g>
</svg>
